<mxfile host="65bd71144e">
    <diagram id="GyPT0uxAxaLbNnScCG3L" name="Page-1">
        <mxGraphModel dx="1575" dy="1167" grid="1" gridSize="10" guides="1" tooltips="1" connect="1" arrows="1" fold="1" page="1" pageScale="1" pageWidth="1169" pageHeight="827" math="0" shadow="0">
            <root>
                <mxCell id="0"/>
                <mxCell id="1" parent="0"/>
                <mxCell id="USTnXe4FdPu9y6lo2B6L-3" value="Member Account" style="points=[[0,0],[0.25,0],[0.5,0],[0.75,0],[1,0],[1,0.25],[1,0.5],[1,0.75],[1,1],[0.75,1],[0.5,1],[0.25,1],[0,1],[0,0.75],[0,0.5],[0,0.25]];outlineConnect=0;gradientColor=none;html=1;whiteSpace=wrap;fontSize=12;fontStyle=0;container=1;pointerEvents=0;collapsible=0;recursiveResize=0;shape=mxgraph.aws4.group;grIcon=mxgraph.aws4.group_aws_cloud_alt;strokeColor=#232F3E;fillColor=none;verticalAlign=top;align=left;spacingLeft=30;fontColor=#232F3E;dashed=0;" parent="1" vertex="1">
                    <mxGeometry x="75" y="80" width="240" height="200" as="geometry"/>
                </mxCell>
                <mxCell id="USTnXe4FdPu9y6lo2B6L-2" value="Trusted Advisor" style="sketch=0;points=[[0,0,0],[0.25,0,0],[0.5,0,0],[0.75,0,0],[1,0,0],[0,1,0],[0.25,1,0],[0.5,1,0],[0.75,1,0],[1,1,0],[0,0.25,0],[0,0.5,0],[0,0.75,0],[1,0.25,0],[1,0.5,0],[1,0.75,0]];points=[[0,0,0],[0.25,0,0],[0.5,0,0],[0.75,0,0],[1,0,0],[0,1,0],[0.25,1,0],[0.5,1,0],[0.75,1,0],[1,1,0],[0,0.25,0],[0,0.5,0],[0,0.75,0],[1,0.25,0],[1,0.5,0],[1,0.75,0]];outlineConnect=0;fontColor=#232F3E;gradientColor=#F34482;gradientDirection=north;fillColor=#BC1356;strokeColor=#ffffff;dashed=0;verticalLabelPosition=bottom;verticalAlign=top;align=center;html=1;fontSize=12;fontStyle=0;aspect=fixed;shape=mxgraph.aws4.resourceIcon;resIcon=mxgraph.aws4.trusted_advisor;" parent="USTnXe4FdPu9y6lo2B6L-3" vertex="1">
                    <mxGeometry x="19" y="60" width="78" height="78" as="geometry"/>
                </mxCell>
                <mxCell id="3" value="" style="edgeStyle=none;html=1;" edge="1" parent="USTnXe4FdPu9y6lo2B6L-3" source="USTnXe4FdPu9y6lo2B6L-6" target="USTnXe4FdPu9y6lo2B6L-2">
                    <mxGeometry relative="1" as="geometry"/>
                </mxCell>
                <mxCell id="USTnXe4FdPu9y6lo2B6L-6" value="Read&lt;br&gt;&amp;nbsp;role" style="sketch=0;outlineConnect=0;fontColor=#232F3E;gradientColor=none;fillColor=#BF0816;strokeColor=none;dashed=0;verticalLabelPosition=bottom;verticalAlign=top;align=center;html=1;fontSize=12;fontStyle=0;aspect=fixed;pointerEvents=1;shape=mxgraph.aws4.role;" parent="USTnXe4FdPu9y6lo2B6L-3" vertex="1">
                    <mxGeometry x="140" y="77" width="78" height="44" as="geometry"/>
                </mxCell>
                <mxCell id="USTnXe4FdPu9y6lo2B6L-8" value="Admin Account" style="points=[[0,0],[0.25,0],[0.5,0],[0.75,0],[1,0],[1,0.25],[1,0.5],[1,0.75],[1,1],[0.75,1],[0.5,1],[0.25,1],[0,1],[0,0.75],[0,0.5],[0,0.25]];outlineConnect=0;gradientColor=none;html=1;whiteSpace=wrap;fontSize=12;fontStyle=0;container=1;pointerEvents=0;collapsible=0;recursiveResize=0;shape=mxgraph.aws4.group;grIcon=mxgraph.aws4.group_aws_cloud_alt;strokeColor=#232F3E;fillColor=none;verticalAlign=top;align=left;spacingLeft=30;fontColor=#232F3E;dashed=0;" parent="1" vertex="1">
                    <mxGeometry x="345" y="80" width="750" height="680" as="geometry"/>
                </mxCell>
                <mxCell id="USTnXe4FdPu9y6lo2B6L-10" value="Trusted&lt;br&gt;&amp;nbsp;Admin role&lt;br&gt;&amp;nbsp;" style="sketch=0;outlineConnect=0;fontColor=#232F3E;gradientColor=none;fillColor=#BF0816;strokeColor=none;dashed=0;verticalLabelPosition=bottom;verticalAlign=top;align=center;html=1;fontSize=12;fontStyle=0;aspect=fixed;pointerEvents=1;shape=mxgraph.aws4.role;" parent="USTnXe4FdPu9y6lo2B6L-8" vertex="1">
                    <mxGeometry x="50" y="317" width="78" height="44" as="geometry"/>
                </mxCell>
                <mxCell id="29" value="" style="edgeStyle=none;html=1;" edge="1" parent="USTnXe4FdPu9y6lo2B6L-8" source="USTnXe4FdPu9y6lo2B6L-11" target="USTnXe4FdPu9y6lo2B6L-19">
                    <mxGeometry relative="1" as="geometry"/>
                </mxCell>
                <mxCell id="35" value="" style="edgeStyle=none;html=1;" edge="1" parent="USTnXe4FdPu9y6lo2B6L-8" source="USTnXe4FdPu9y6lo2B6L-11" target="USTnXe4FdPu9y6lo2B6L-10">
                    <mxGeometry relative="1" as="geometry"/>
                </mxCell>
                <mxCell id="USTnXe4FdPu9y6lo2B6L-11" value="Trusted Advisor&lt;br&gt;fetcher" style="sketch=0;points=[[0,0,0],[0.25,0,0],[0.5,0,0],[0.75,0,0],[1,0,0],[0,1,0],[0.25,1,0],[0.5,1,0],[0.75,1,0],[1,1,0],[0,0.25,0],[0,0.5,0],[0,0.75,0],[1,0.25,0],[1,0.5,0],[1,0.75,0]];outlineConnect=0;fontColor=#232F3E;gradientColor=#F78E04;gradientDirection=north;fillColor=#D05C17;strokeColor=#ffffff;dashed=0;verticalLabelPosition=bottom;verticalAlign=top;align=center;html=1;fontSize=12;fontStyle=0;aspect=fixed;shape=mxgraph.aws4.resourceIcon;resIcon=mxgraph.aws4.lambda;" parent="USTnXe4FdPu9y6lo2B6L-8" vertex="1">
                    <mxGeometry x="190" y="300" width="78" height="78" as="geometry"/>
                </mxCell>
                <mxCell id="25" value="" style="edgeStyle=none;html=1;" edge="1" parent="USTnXe4FdPu9y6lo2B6L-8" source="USTnXe4FdPu9y6lo2B6L-16" target="USTnXe4FdPu9y6lo2B6L-11">
                    <mxGeometry relative="1" as="geometry"/>
                </mxCell>
                <mxCell id="USTnXe4FdPu9y6lo2B6L-16" value="SQS" style="sketch=0;points=[[0,0,0],[0.25,0,0],[0.5,0,0],[0.75,0,0],[1,0,0],[0,1,0],[0.25,1,0],[0.5,1,0],[0.75,1,0],[1,1,0],[0,0.25,0],[0,0.5,0],[0,0.75,0],[1,0.25,0],[1,0.5,0],[1,0.75,0]];outlineConnect=0;fontColor=#232F3E;gradientColor=#FF4F8B;gradientDirection=north;fillColor=#BC1356;strokeColor=#ffffff;dashed=0;verticalLabelPosition=bottom;verticalAlign=top;align=center;html=1;fontSize=12;fontStyle=0;aspect=fixed;shape=mxgraph.aws4.resourceIcon;resIcon=mxgraph.aws4.sqs;" parent="USTnXe4FdPu9y6lo2B6L-8" vertex="1">
                    <mxGeometry x="280" y="120" width="78" height="78" as="geometry"/>
                </mxCell>
                <mxCell id="27" value="" style="edgeStyle=none;html=1;" edge="1" parent="USTnXe4FdPu9y6lo2B6L-8" source="USTnXe4FdPu9y6lo2B6L-17" target="USTnXe4FdPu9y6lo2B6L-16">
                    <mxGeometry relative="1" as="geometry"/>
                </mxCell>
                <mxCell id="USTnXe4FdPu9y6lo2B6L-17" value="Accounts list&lt;br&gt;fetcher" style="sketch=0;points=[[0,0,0],[0.25,0,0],[0.5,0,0],[0.75,0,0],[1,0,0],[0,1,0],[0.25,1,0],[0.5,1,0],[0.75,1,0],[1,1,0],[0,0.25,0],[0,0.5,0],[0,0.75,0],[1,0.25,0],[1,0.5,0],[1,0.75,0]];outlineConnect=0;fontColor=#232F3E;gradientColor=#F78E04;gradientDirection=north;fillColor=#D05C17;strokeColor=#ffffff;dashed=0;verticalLabelPosition=bottom;verticalAlign=top;align=center;html=1;fontSize=12;fontStyle=0;aspect=fixed;shape=mxgraph.aws4.resourceIcon;resIcon=mxgraph.aws4.lambda;" parent="USTnXe4FdPu9y6lo2B6L-8" vertex="1">
                    <mxGeometry x="440" y="120" width="78" height="78" as="geometry"/>
                </mxCell>
                <mxCell id="28" value="" style="edgeStyle=none;html=1;" edge="1" parent="USTnXe4FdPu9y6lo2B6L-8" source="USTnXe4FdPu9y6lo2B6L-18" target="USTnXe4FdPu9y6lo2B6L-17">
                    <mxGeometry relative="1" as="geometry"/>
                </mxCell>
                <mxCell id="USTnXe4FdPu9y6lo2B6L-18" value="Scheduler" style="sketch=0;points=[[0,0,0],[0.25,0,0],[0.5,0,0],[0.75,0,0],[1,0,0],[0,1,0],[0.25,1,0],[0.5,1,0],[0.75,1,0],[1,1,0],[0,0.25,0],[0,0.5,0],[0,0.75,0],[1,0.25,0],[1,0.5,0],[1,0.75,0]];outlineConnect=0;fontColor=#232F3E;gradientColor=#FF4F8B;gradientDirection=north;fillColor=#BC1356;strokeColor=#ffffff;dashed=0;verticalLabelPosition=bottom;verticalAlign=top;align=center;html=1;fontSize=12;fontStyle=0;aspect=fixed;shape=mxgraph.aws4.resourceIcon;resIcon=mxgraph.aws4.eventbridge;" parent="USTnXe4FdPu9y6lo2B6L-8" vertex="1">
                    <mxGeometry x="600" y="120" width="78" height="78" as="geometry"/>
                </mxCell>
                <mxCell id="USTnXe4FdPu9y6lo2B6L-19" value="Aggregated&lt;br&gt;Raw Data" style="sketch=0;points=[[0,0,0],[0.25,0,0],[0.5,0,0],[0.75,0,0],[1,0,0],[0,1,0],[0.25,1,0],[0.5,1,0],[0.75,1,0],[1,1,0],[0,0.25,0],[0,0.5,0],[0,0.75,0],[1,0.25,0],[1,0.5,0],[1,0.75,0]];outlineConnect=0;fontColor=#232F3E;gradientColor=#60A337;gradientDirection=north;fillColor=#277116;strokeColor=#ffffff;dashed=0;verticalLabelPosition=bottom;verticalAlign=top;align=center;html=1;fontSize=12;fontStyle=0;aspect=fixed;shape=mxgraph.aws4.resourceIcon;resIcon=mxgraph.aws4.s3;" parent="USTnXe4FdPu9y6lo2B6L-8" vertex="1">
                    <mxGeometry x="350" y="300" width="78" height="78" as="geometry"/>
                </mxCell>
                <mxCell id="USTnXe4FdPu9y6lo2B6L-20" value="Query Output" style="sketch=0;points=[[0,0,0],[0.25,0,0],[0.5,0,0],[0.75,0,0],[1,0,0],[0,1,0],[0.25,1,0],[0.5,1,0],[0.75,1,0],[1,1,0],[0,0.25,0],[0,0.5,0],[0,0.75,0],[1,0.25,0],[1,0.5,0],[1,0.75,0]];outlineConnect=0;fontColor=#232F3E;gradientColor=#60A337;gradientDirection=north;fillColor=#277116;strokeColor=#ffffff;dashed=0;verticalLabelPosition=bottom;verticalAlign=top;align=center;html=1;fontSize=12;fontStyle=0;aspect=fixed;shape=mxgraph.aws4.resourceIcon;resIcon=mxgraph.aws4.s3;" parent="USTnXe4FdPu9y6lo2B6L-8" vertex="1">
                    <mxGeometry x="590" y="301" width="78" height="78" as="geometry"/>
                </mxCell>
                <mxCell id="31" value="" style="edgeStyle=none;html=1;" edge="1" parent="USTnXe4FdPu9y6lo2B6L-8" source="USTnXe4FdPu9y6lo2B6L-21" target="USTnXe4FdPu9y6lo2B6L-22">
                    <mxGeometry relative="1" as="geometry"/>
                </mxCell>
                <mxCell id="32" value="" style="edgeStyle=none;html=1;" edge="1" parent="USTnXe4FdPu9y6lo2B6L-8" source="USTnXe4FdPu9y6lo2B6L-21">
                    <mxGeometry relative="1" as="geometry">
                        <mxPoint x="428" y="370.0007563025209" as="targetPoint"/>
                    </mxGeometry>
                </mxCell>
                <mxCell id="33" value="" style="edgeStyle=none;html=1;" edge="1" parent="USTnXe4FdPu9y6lo2B6L-8" source="USTnXe4FdPu9y6lo2B6L-21">
                    <mxGeometry relative="1" as="geometry">
                        <mxPoint x="590" y="370.25049586776856" as="targetPoint"/>
                    </mxGeometry>
                </mxCell>
                <mxCell id="USTnXe4FdPu9y6lo2B6L-21" value="Athena &lt;br&gt;Named Queries" style="sketch=0;points=[[0,0,0],[0.25,0,0],[0.5,0,0],[0.75,0,0],[1,0,0],[0,1,0],[0.25,1,0],[0.5,1,0],[0.75,1,0],[1,1,0],[0,0.25,0],[0,0.5,0],[0,0.75,0],[1,0.25,0],[1,0.5,0],[1,0.75,0]];outlineConnect=0;fontColor=#232F3E;gradientColor=#945DF2;gradientDirection=north;fillColor=#5A30B5;strokeColor=#ffffff;dashed=0;verticalLabelPosition=bottom;verticalAlign=top;align=center;html=1;fontSize=12;fontStyle=0;aspect=fixed;shape=mxgraph.aws4.resourceIcon;resIcon=mxgraph.aws4.athena;" parent="USTnXe4FdPu9y6lo2B6L-8" vertex="1">
                    <mxGeometry x="469" y="384.11" width="78" height="78" as="geometry"/>
                </mxCell>
                <mxCell id="USTnXe4FdPu9y6lo2B6L-22" value="AWS Glue&lt;br&gt;Synthectic Datamodel" style="sketch=0;points=[[0,0,0],[0.25,0,0],[0.5,0,0],[0.75,0,0],[1,0,0],[0,1,0],[0.25,1,0],[0.5,1,0],[0.75,1,0],[1,1,0],[0,0.25,0],[0,0.5,0],[0,0.75,0],[1,0.25,0],[1,0.5,0],[1,0.75,0]];outlineConnect=0;fontColor=#232F3E;gradientColor=#945DF2;gradientDirection=north;fillColor=#5A30B5;strokeColor=#ffffff;dashed=0;verticalLabelPosition=bottom;verticalAlign=top;align=center;html=1;fontSize=12;fontStyle=0;aspect=fixed;shape=mxgraph.aws4.resourceIcon;resIcon=mxgraph.aws4.glue;" parent="USTnXe4FdPu9y6lo2B6L-8" vertex="1">
                    <mxGeometry x="350" y="485.11" width="78" height="78" as="geometry"/>
                </mxCell>
                <mxCell id="34" value="" style="edgeStyle=none;html=1;" edge="1" parent="USTnXe4FdPu9y6lo2B6L-8" source="USTnXe4FdPu9y6lo2B6L-31" target="USTnXe4FdPu9y6lo2B6L-21">
                    <mxGeometry relative="1" as="geometry"/>
                </mxCell>
                <mxCell id="USTnXe4FdPu9y6lo2B6L-31" value="Analyst&lt;br&gt;" style="sketch=0;outlineConnect=0;fontColor=#232F3E;gradientColor=none;fillColor=#232F3D;strokeColor=none;dashed=0;verticalLabelPosition=bottom;verticalAlign=top;align=center;html=1;fontSize=12;fontStyle=0;aspect=fixed;pointerEvents=1;shape=mxgraph.aws4.user;" parent="USTnXe4FdPu9y6lo2B6L-8" vertex="1">
                    <mxGeometry x="590" y="485.11" width="78" height="78" as="geometry"/>
                </mxCell>
                <mxCell id="USTnXe4FdPu9y6lo2B6L-32" value="Analyst role" style="sketch=0;outlineConnect=0;fontColor=#232F3E;gradientColor=none;fillColor=#BF0816;strokeColor=none;dashed=0;verticalLabelPosition=bottom;verticalAlign=top;align=center;html=1;fontSize=12;fontStyle=0;aspect=fixed;pointerEvents=1;shape=mxgraph.aws4.role;" parent="USTnXe4FdPu9y6lo2B6L-8" vertex="1">
                    <mxGeometry x="600" y="600" width="78" height="44" as="geometry"/>
                </mxCell>
                <mxCell id="46" value="1" style="ellipse;whiteSpace=wrap;html=1;aspect=fixed;fontSize=10;fillColor=#dae8fc;strokeColor=#6c8ebf;" vertex="1" parent="USTnXe4FdPu9y6lo2B6L-8">
                    <mxGeometry x="546.75" y="130" width="25" height="25" as="geometry"/>
                </mxCell>
                <mxCell id="42" value="2" style="ellipse;whiteSpace=wrap;html=1;aspect=fixed;fontSize=10;fillColor=#dae8fc;strokeColor=#6c8ebf;" vertex="1" parent="USTnXe4FdPu9y6lo2B6L-8">
                    <mxGeometry x="388.5" y="130" width="25" height="25" as="geometry"/>
                </mxCell>
                <mxCell id="53" value="1" style="ellipse;whiteSpace=wrap;html=1;aspect=fixed;fontSize=10;fillColor=#fff2cc;strokeColor=#d6b656;" vertex="1" parent="USTnXe4FdPu9y6lo2B6L-8">
                    <mxGeometry x="233" y="230" width="25" height="25" as="geometry"/>
                </mxCell>
                <mxCell id="54" value="2" style="ellipse;whiteSpace=wrap;html=1;aspect=fixed;fontSize=10;fillColor=#fff2cc;strokeColor=#d6b656;" vertex="1" parent="USTnXe4FdPu9y6lo2B6L-8">
                    <mxGeometry x="140" y="310" width="25" height="25" as="geometry"/>
                </mxCell>
                <mxCell id="43" value="3" style="ellipse;whiteSpace=wrap;html=1;aspect=fixed;fontSize=10;fillColor=#fff2cc;strokeColor=#d6b656;" vertex="1" parent="USTnXe4FdPu9y6lo2B6L-8">
                    <mxGeometry x="10" y="310" width="25" height="25" as="geometry"/>
                </mxCell>
                <mxCell id="45" value="5" style="ellipse;whiteSpace=wrap;html=1;aspect=fixed;fontSize=10;fillColor=#fff2cc;strokeColor=#d6b656;" vertex="1" parent="USTnXe4FdPu9y6lo2B6L-8">
                    <mxGeometry x="290" y="310" width="25" height="25" as="geometry"/>
                </mxCell>
                <mxCell id="56" value="1" style="ellipse;whiteSpace=wrap;html=1;aspect=fixed;fontSize=10;fillColor=#d5e8d4;strokeColor=#82b366;" vertex="1" parent="USTnXe4FdPu9y6lo2B6L-8">
                    <mxGeometry x="575" y="437.11" width="25" height="25" as="geometry"/>
                </mxCell>
                <mxCell id="57" value="2" style="ellipse;whiteSpace=wrap;html=1;aspect=fixed;fontSize=10;fillColor=#d5e8d4;strokeColor=#82b366;" vertex="1" parent="USTnXe4FdPu9y6lo2B6L-8">
                    <mxGeometry x="420" y="437.11" width="25" height="25" as="geometry"/>
                </mxCell>
                <mxCell id="60" value="3" style="ellipse;whiteSpace=wrap;html=1;aspect=fixed;fontSize=10;fillColor=#d5e8d4;strokeColor=#82b366;" vertex="1" parent="USTnXe4FdPu9y6lo2B6L-8">
                    <mxGeometry x="445" y="340" width="25" height="25" as="geometry"/>
                </mxCell>
                <mxCell id="61" value="4" style="ellipse;whiteSpace=wrap;html=1;aspect=fixed;fontSize=10;fillColor=#d5e8d4;strokeColor=#82b366;" vertex="1" parent="USTnXe4FdPu9y6lo2B6L-8">
                    <mxGeometry x="547" y="340" width="25" height="25" as="geometry"/>
                </mxCell>
                <mxCell id="12" value="Member Account" style="points=[[0,0],[0.25,0],[0.5,0],[0.75,0],[1,0],[1,0.25],[1,0.5],[1,0.75],[1,1],[0.75,1],[0.5,1],[0.25,1],[0,1],[0,0.75],[0,0.5],[0,0.25]];outlineConnect=0;gradientColor=none;html=1;whiteSpace=wrap;fontSize=12;fontStyle=0;container=1;pointerEvents=0;collapsible=0;recursiveResize=0;shape=mxgraph.aws4.group;grIcon=mxgraph.aws4.group_aws_cloud_alt;strokeColor=#232F3E;fillColor=none;verticalAlign=top;align=left;spacingLeft=30;fontColor=#232F3E;dashed=0;" vertex="1" parent="1">
                    <mxGeometry x="75" y="320" width="240" height="200" as="geometry"/>
                </mxCell>
                <mxCell id="13" value="Trusted Advisor" style="sketch=0;points=[[0,0,0],[0.25,0,0],[0.5,0,0],[0.75,0,0],[1,0,0],[0,1,0],[0.25,1,0],[0.5,1,0],[0.75,1,0],[1,1,0],[0,0.25,0],[0,0.5,0],[0,0.75,0],[1,0.25,0],[1,0.5,0],[1,0.75,0]];points=[[0,0,0],[0.25,0,0],[0.5,0,0],[0.75,0,0],[1,0,0],[0,1,0],[0.25,1,0],[0.5,1,0],[0.75,1,0],[1,1,0],[0,0.25,0],[0,0.5,0],[0,0.75,0],[1,0.25,0],[1,0.5,0],[1,0.75,0]];outlineConnect=0;fontColor=#232F3E;gradientColor=#F34482;gradientDirection=north;fillColor=#BC1356;strokeColor=#ffffff;dashed=0;verticalLabelPosition=bottom;verticalAlign=top;align=center;html=1;fontSize=12;fontStyle=0;aspect=fixed;shape=mxgraph.aws4.resourceIcon;resIcon=mxgraph.aws4.trusted_advisor;" vertex="1" parent="12">
                    <mxGeometry x="19" y="60" width="78" height="78" as="geometry"/>
                </mxCell>
                <mxCell id="14" value="" style="edgeStyle=none;html=1;" edge="1" parent="12" source="15" target="13">
                    <mxGeometry relative="1" as="geometry"/>
                </mxCell>
                <mxCell id="15" value="Read role" style="sketch=0;outlineConnect=0;fontColor=#232F3E;gradientColor=none;fillColor=#BF0816;strokeColor=none;dashed=0;verticalLabelPosition=bottom;verticalAlign=top;align=center;html=1;fontSize=12;fontStyle=0;aspect=fixed;pointerEvents=1;shape=mxgraph.aws4.role;" vertex="1" parent="12">
                    <mxGeometry x="140" y="77" width="78" height="44" as="geometry"/>
                </mxCell>
                <mxCell id="44" value="4" style="ellipse;whiteSpace=wrap;html=1;aspect=fixed;fontSize=10;fillColor=#fff2cc;strokeColor=#d6b656;" vertex="1" parent="12">
                    <mxGeometry x="115" y="70" width="25" height="25" as="geometry"/>
                </mxCell>
                <mxCell id="16" value="Member Account" style="points=[[0,0],[0.25,0],[0.5,0],[0.75,0],[1,0],[1,0.25],[1,0.5],[1,0.75],[1,1],[0.75,1],[0.5,1],[0.25,1],[0,1],[0,0.75],[0,0.5],[0,0.25]];outlineConnect=0;gradientColor=none;html=1;whiteSpace=wrap;fontSize=12;fontStyle=0;container=1;pointerEvents=0;collapsible=0;recursiveResize=0;shape=mxgraph.aws4.group;grIcon=mxgraph.aws4.group_aws_cloud_alt;strokeColor=#232F3E;fillColor=none;verticalAlign=top;align=left;spacingLeft=30;fontColor=#232F3E;dashed=0;" vertex="1" parent="1">
                    <mxGeometry x="75" y="560" width="240" height="200" as="geometry"/>
                </mxCell>
                <mxCell id="17" value="Trusted Advisor" style="sketch=0;points=[[0,0,0],[0.25,0,0],[0.5,0,0],[0.75,0,0],[1,0,0],[0,1,0],[0.25,1,0],[0.5,1,0],[0.75,1,0],[1,1,0],[0,0.25,0],[0,0.5,0],[0,0.75,0],[1,0.25,0],[1,0.5,0],[1,0.75,0]];points=[[0,0,0],[0.25,0,0],[0.5,0,0],[0.75,0,0],[1,0,0],[0,1,0],[0.25,1,0],[0.5,1,0],[0.75,1,0],[1,1,0],[0,0.25,0],[0,0.5,0],[0,0.75,0],[1,0.25,0],[1,0.5,0],[1,0.75,0]];outlineConnect=0;fontColor=#232F3E;gradientColor=#F34482;gradientDirection=north;fillColor=#BC1356;strokeColor=#ffffff;dashed=0;verticalLabelPosition=bottom;verticalAlign=top;align=center;html=1;fontSize=12;fontStyle=0;aspect=fixed;shape=mxgraph.aws4.resourceIcon;resIcon=mxgraph.aws4.trusted_advisor;" vertex="1" parent="16">
                    <mxGeometry x="19" y="60" width="78" height="78" as="geometry"/>
                </mxCell>
                <mxCell id="18" value="" style="edgeStyle=none;html=1;" edge="1" parent="16" source="19" target="17">
                    <mxGeometry relative="1" as="geometry"/>
                </mxCell>
                <mxCell id="19" value="Read role" style="sketch=0;outlineConnect=0;fontColor=#232F3E;gradientColor=none;fillColor=#BF0816;strokeColor=none;dashed=0;verticalLabelPosition=bottom;verticalAlign=top;align=center;html=1;fontSize=12;fontStyle=0;aspect=fixed;pointerEvents=1;shape=mxgraph.aws4.role;" vertex="1" parent="16">
                    <mxGeometry x="140" y="77" width="78" height="44" as="geometry"/>
                </mxCell>
                <mxCell id="22" value="" style="edgeStyle=none;html=1;" edge="1" parent="1" source="USTnXe4FdPu9y6lo2B6L-10" target="15">
                    <mxGeometry relative="1" as="geometry"/>
                </mxCell>
                <mxCell id="37" value="" style="edgeStyle=none;html=1;" edge="1" parent="1" source="USTnXe4FdPu9y6lo2B6L-10" target="19">
                    <mxGeometry relative="1" as="geometry"/>
                </mxCell>
                <mxCell id="38" value="" style="edgeStyle=none;html=1;" edge="1" parent="1" source="USTnXe4FdPu9y6lo2B6L-10" target="USTnXe4FdPu9y6lo2B6L-6">
                    <mxGeometry relative="1" as="geometry"/>
                </mxCell>
            </root>
        </mxGraphModel>
    </diagram>
</mxfile>